<svg xmlns="http://www.w3.org/2000/svg" version="1.1" xmlns:xlink="http://www.w3.org/1999/xlink" xmlns:svgjs="http://svgjs.dev/svgjs" viewBox="0 0 24.849486758828224 5.6105053695043114"><g transform="matrix(1,0,0,1,0.9288812149333463,1.0162026847521555)"><g><path d=" M 8.051683593749999 1.0574999999999999 L 8.050183593749999 0.15899999999999992 L 7.610683593749999 0.9179999999999999 L 7.573183593749999 0.9179999999999999 L 7.133683593749999 0.1619999999999998 L 7.133683593749999 1.0574999999999999 L 7.058683593749999 1.0574999999999999 L 7.058683593749999 0.00749999999999984 L 7.1231835937499985 0.00749999999999984 L 7.592683593749999 0.8189999999999998 L 8.06218359375 0.00749999999999984 L 8.125183593749998 0.00749999999999984 L 8.126683593749998 1.0574999999999999 L 8.051683593749999 1.0574999999999999 Z M 8.674174072265625 0.9952499999999999 Q 8.549674072265624 0.9254999999999999 8.478424072265625 0.8039999999999998 Q 8.407174072265624 0.6824999999999999 8.407174072265624 0.5324999999999999 Q 8.407174072265624 0.38249999999999984 8.478424072265625 0.2609999999999999 Q 8.549674072265624 0.13949999999999985 8.674174072265625 0.06974999999999987 Q 8.798674072265625 -2.220446049250313e-16 8.953174072265625 -2.220446049250313e-16 Q 9.107674072265624 -2.220446049250313e-16 9.232174072265625 0.06899999999999984 Q 9.356674072265625 0.1379999999999999 9.427924072265625 0.25949999999999984 Q 9.499174072265625 0.3809999999999999 9.499174072265625 0.5324999999999999 Q 9.499174072265625 0.6839999999999999 9.427924072265625 0.8054999999999999 Q 9.356674072265625 0.9269999999999998 9.232174072265625 0.9959999999999999 Q 9.107674072265624 1.065 8.953174072265625 1.065 Q 8.798674072265625 1.065 8.674174072265625 0.9952499999999999 Z M 9.191674072265624 0.9344999999999999 Q 9.298174072265624 0.8744999999999998 9.359674072265625 0.7687499999999998 Q 9.421174072265625 0.6629999999999998 9.421174072265625 0.5324999999999999 Q 9.421174072265625 0.4019999999999999 9.359674072265625 0.2962499999999999 Q 9.298174072265624 0.1904999999999999 9.191674072265624 0.13049999999999984 Q 9.085174072265625 0.0704999999999999 8.953174072265625 0.0704999999999999 Q 8.821174072265624 0.0704999999999999 8.713924072265625 0.13049999999999984 Q 8.606674072265625 0.1904999999999999 8.545174072265624 0.2962499999999999 Q 8.483674072265625 0.4019999999999999 8.483674072265625 0.5324999999999999 Q 8.483674072265625 0.6629999999999998 8.545174072265624 0.7687499999999998 Q 8.606674072265625 0.8744999999999998 8.713924072265625 0.9344999999999999 Q 8.821174072265624 0.9944999999999999 8.953174072265625 0.9944999999999999 Q 9.085174072265625 0.9944999999999999 9.191674072265624 0.9344999999999999 Z M 9.9461015625 0.9952499999999999 Q 9.8216015625 0.9254999999999999 9.7503515625 0.8039999999999998 Q 9.6791015625 0.6824999999999999 9.6791015625 0.5324999999999999 Q 9.6791015625 0.38249999999999984 9.7503515625 0.2609999999999999 Q 9.8216015625 0.13949999999999985 9.9461015625 0.06974999999999987 Q 10.0706015625 -2.220446049250313e-16 10.2251015625 -2.220446049250313e-16 Q 10.3796015625 -2.220446049250313e-16 10.5041015625 0.06899999999999984 Q 10.6286015625 0.1379999999999999 10.699851562500001 0.25949999999999984 Q 10.7711015625 0.3809999999999999 10.7711015625 0.5324999999999999 Q 10.7711015625 0.6839999999999999 10.699851562500001 0.8054999999999999 Q 10.6286015625 0.9269999999999998 10.5041015625 0.9959999999999999 Q 10.3796015625 1.065 10.2251015625 1.065 Q 10.0706015625 1.065 9.9461015625 0.9952499999999999 Z M 10.4636015625 0.9344999999999999 Q 10.5701015625 0.8744999999999998 10.6316015625 0.7687499999999998 Q 10.6931015625 0.6629999999999998 10.6931015625 0.5324999999999999 Q 10.6931015625 0.4019999999999999 10.6316015625 0.2962499999999999 Q 10.5701015625 0.1904999999999999 10.4636015625 0.13049999999999984 Q 10.3571015625 0.0704999999999999 10.2251015625 0.0704999999999999 Q 10.0931015625 0.0704999999999999 9.9858515625 0.13049999999999984 Q 9.8786015625 0.1904999999999999 9.8171015625 0.2962499999999999 Q 9.7556015625 0.4019999999999999 9.7556015625 0.5324999999999999 Q 9.7556015625 0.6629999999999998 9.8171015625 0.7687499999999998 Q 9.8786015625 0.8744999999999998 9.9858515625 0.9344999999999999 Q 10.0931015625 0.9944999999999999 10.2251015625 0.9944999999999999 Q 10.3571015625 0.9944999999999999 10.4636015625 0.9344999999999999 Z M 11.906529052734376 0.00749999999999984 L 11.906529052734376 1.0574999999999999 L 11.843529052734375 1.0574999999999999 L 11.128029052734375 0.14549999999999985 L 11.128029052734375 1.0574999999999999 L 11.051529052734375 1.0574999999999999 L 11.051529052734375 0.00749999999999984 L 11.116029052734376 0.00749999999999984 L 11.830029052734375 0.9194999999999999 L 11.830029052734375 0.00749999999999984 L 11.906529052734376 0.00749999999999984 Z M 12.287476318359376 0.00749999999999984 L 12.363976318359375 0.00749999999999984 L 12.363976318359375 0.9884999999999999 L 12.968476318359377 0.9884999999999999 L 12.968476318359377 1.0574999999999999 L 12.287476318359376 1.0574999999999999 L 12.287476318359376 0.00749999999999984 Z M 13.179917724609377 0.00749999999999984 L 13.256417724609376 0.00749999999999984 L 13.256417724609376 1.0574999999999999 L 13.179917724609377 1.0574999999999999 L 13.179917724609377 0.00749999999999984 Z M 14.387392089843752 0.5369999999999999 L 14.460892089843753 0.5369999999999999 L 14.460892089843753 0.9299999999999999 Q 14.391892089843752 0.9959999999999999 14.293642089843752 1.0305 Q 14.195392089843752 1.065 14.085892089843753 1.065 Q 13.929892089843753 1.065 13.804642089843753 0.9959999999999999 Q 13.679392089843752 0.9269999999999998 13.608142089843753 0.8054999999999999 Q 13.536892089843752 0.6839999999999999 13.536892089843752 0.5324999999999999 Q 13.536892089843752 0.3809999999999999 13.608142089843753 0.25949999999999984 Q 13.679392089843752 0.1379999999999999 13.804642089843753 0.06899999999999984 Q 13.929892089843753 -2.220446049250313e-16 14.087392089843753 -2.220446049250313e-16 Q 14.202892089843752 -2.220446049250313e-16 14.299642089843752 0.03674999999999984 Q 14.396392089843753 0.0734999999999999 14.465392089843753 0.1439999999999999 L 14.417392089843752 0.19499999999999984 Q 14.351392089843753 0.1289999999999999 14.269642089843753 0.0997499999999999 Q 14.187892089843752 0.0704999999999999 14.088892089843753 0.0704999999999999 Q 13.953892089843752 0.0704999999999999 13.845142089843753 0.13049999999999984 Q 13.736392089843752 0.1904999999999999 13.674892089843752 0.2962499999999999 Q 13.613392089843753 0.4019999999999999 13.613392089843753 0.5324999999999999 Q 13.613392089843753 0.6614999999999999 13.675642089843752 0.7672499999999999 Q 13.737892089843752 0.8729999999999999 13.845892089843753 0.9337499999999999 Q 13.953892089843752 0.9944999999999999 14.088892089843753 0.9944999999999999 Q 14.268892089843753 0.9944999999999999 14.387392089843752 0.8984999999999999 L 14.387392089843752 0.5369999999999999 Z M 15.666815917968753 0.00749999999999984 L 15.666815917968753 1.0574999999999999 L 15.590315917968752 1.0574999999999999 L 15.590315917968752 0.5579999999999998 L 14.888315917968752 0.5579999999999998 L 14.888315917968752 1.0574999999999999 L 14.811815917968753 1.0574999999999999 L 14.811815917968753 0.00749999999999984 L 14.888315917968752 0.00749999999999984 L 14.888315917968752 0.4904999999999998 L 15.590315917968752 0.4904999999999998 L 15.590315917968752 0.00749999999999984 L 15.666815917968753 0.00749999999999984 Z M 16.248763183593752 0.0764999999999999 L 15.870763183593754 0.0764999999999999 L 15.870763183593754 0.00749999999999984 L 16.703263183593755 0.00749999999999984 L 16.703263183593755 0.0764999999999999 L 16.325263183593755 0.0764999999999999 L 16.325263183593755 1.0574999999999999 L 16.248763183593752 1.0574999999999999 L 16.248763183593752 0.0764999999999999 Z M 12.301171142578122 1.5765000000000002 L 12.301171142578122 2.0250000000000004 L 12.860671142578123 2.0250000000000004 L 12.860671142578123 2.0940000000000003 L 12.301171142578122 2.0940000000000003 L 12.301171142578122 2.5575 L 12.224671142578122 2.5575 L 12.224671142578122 1.5075 L 12.926671142578122 1.5075 L 12.926671142578122 1.5765000000000002 L 12.301171142578122 1.5765000000000002 Z M 13.784556884765623 2.262 L 13.175556884765623 2.262 L 13.042056884765623 2.5575 L 12.959556884765624 2.5575 L 13.442556884765624 1.5075 L 13.519056884765623 1.5075 L 14.002056884765624 2.5575 L 13.919556884765623 2.5575 L 13.784556884765623 2.262 Z M 13.756056884765623 2.1975000000000002 L 13.480056884765624 1.5915000000000001 L 13.205556884765624 2.1975000000000002 L 13.756056884765623 2.1975000000000002 Z M 14.207490966796874 1.5075 L 14.283990966796873 1.5075 L 14.283990966796873 2.4885 L 14.888490966796875 2.4885 L 14.888490966796875 2.5575 L 14.207490966796874 2.5575 L 14.207490966796874 1.5075 Z M 15.099932373046874 1.5075 L 15.176432373046874 1.5075 L 15.176432373046874 2.4885 L 15.780932373046875 2.4885 L 15.780932373046875 2.5575 L 15.099932373046874 2.5575 L 15.099932373046874 1.5075 Z M 16.035073974609375 2.52525 Q 15.930823974609375 2.4855 15.872323974609374 2.4225000000000003 L 15.906823974609376 2.3655 Q 15.962323974609374 2.424 16.056073974609376 2.46075 Q 16.149823974609376 2.4975 16.253323974609376 2.4975 Q 16.403323974609375 2.4975 16.479823974609374 2.4405 Q 16.556323974609374 2.3835 16.556323974609374 2.2920000000000003 Q 16.556323974609374 2.2215000000000003 16.515823974609376 2.1795 Q 16.475323974609374 2.1375 16.415323974609375 2.115 Q 16.355323974609377 2.0925000000000002 16.253323974609376 2.0685000000000002 Q 16.137823974609375 2.04 16.068073974609376 2.013 Q 15.998323974609375 1.9860000000000002 15.949573974609375 1.92975 Q 15.900823974609375 1.8735 15.900823974609375 1.7790000000000001 Q 15.900823974609375 1.7025000000000001 15.941323974609375 1.63875 Q 15.981823974609375 1.5750000000000002 16.065073974609376 1.5375 Q 16.148323974609376 1.5 16.272823974609373 1.5 Q 16.359823974609377 1.5 16.443823974609376 1.5255 Q 16.527823974609376 1.5510000000000002 16.589323974609375 1.5945 L 16.560823974609374 1.6560000000000001 Q 16.497823974609375 1.6125 16.422073974609376 1.59 Q 16.346323974609376 1.5675000000000001 16.272823974609373 1.5675000000000001 Q 16.127323974609375 1.5675000000000001 16.052323974609376 1.6260000000000001 Q 15.977323974609375 1.6845 15.977323974609375 1.7775 Q 15.977323974609375 1.848 16.017823974609374 1.8900000000000001 Q 16.058323974609376 1.932 16.118323974609375 1.9545000000000001 Q 16.178323974609373 1.977 16.281823974609374 2.0025 Q 16.397323974609375 2.031 16.466323974609374 2.0580000000000003 Q 16.535323974609376 2.085 16.584073974609375 2.1397500000000003 Q 16.632823974609376 2.1945 16.632823974609376 2.2875 Q 16.632823974609376 2.364 16.591573974609375 2.427 Q 16.550323974609373 2.49 16.464823974609374 2.5275000000000003 Q 16.379323974609374 2.565 16.254823974609376 2.565 Q 16.139323974609376 2.565 16.035073974609375 2.52525 Z" fill="#ffffff" fill-rule="nonzero"></path></g><g><path d=" M 0.41475 3.43785 L 0.12225 3.43785 L 0.059250000000000004 3.5781 L 0.0015 3.5781 L 0.2415 3.0531 L 0.29625 3.0531 L 0.53625 3.5781 L 0.47775 3.5781 L 0.41475 3.43785 Z M 0.3945 3.39285 L 0.2685 3.11085 L 0.14250000000000002 3.39285 L 0.3945 3.39285 Z M 1.0694849853515627 3.0531 L 1.0694849853515627 3.5781 L 1.0237349853515627 3.5781 L 0.6862349853515626 3.1521 L 0.6862349853515626 3.5781 L 0.6307349853515626 3.5781 L 0.6307349853515626 3.0531 L 0.6764849853515625 3.0531 L 1.0147349853515626 3.4791 L 1.0147349853515626 3.0531 L 1.0694849853515627 3.0531 Z M 1.5400733642578126 3.5477250000000002 Q 1.4766983642578126 3.5128500000000003 1.4410733642578126 3.4521 Q 1.4054483642578126 3.39135 1.4054483642578126 3.3156 Q 1.4054483642578126 3.23985 1.4410733642578126 3.1791 Q 1.4766983642578126 3.11835 1.5400733642578126 3.083475 Q 1.6034483642578128 3.0486 1.6814483642578126 3.0486 Q 1.7594483642578127 3.0486 1.8220733642578126 3.0831 Q 1.8846983642578126 3.1176 1.9206983642578126 3.178725 Q 1.9566983642578126 3.23985 1.9566983642578126 3.3156 Q 1.9566983642578126 3.39135 1.9206983642578126 3.452475 Q 1.8846983642578126 3.5136000000000003 1.8220733642578126 3.5481000000000003 Q 1.7594483642578127 3.5826000000000002 1.6814483642578126 3.5826000000000002 Q 1.6034483642578128 3.5826000000000002 1.5400733642578126 3.5477250000000002 Z M 1.7939483642578127 3.504975 Q 1.8441983642578128 3.47685 1.8726983642578126 3.426975 Q 1.9011983642578127 3.3771 1.9011983642578127 3.3156 Q 1.9011983642578127 3.2541 1.8726983642578126 3.204225 Q 1.8441983642578128 3.15435 1.7939483642578127 3.126225 Q 1.7436983642578128 3.0981 1.6814483642578126 3.0981 Q 1.6191983642578127 3.0981 1.5685733642578126 3.126225 Q 1.5179483642578127 3.15435 1.4890733642578127 3.204225 Q 1.4601983642578127 3.2541 1.4601983642578127 3.3156 Q 1.4601983642578127 3.3771 1.4890733642578127 3.426975 Q 1.5179483642578127 3.47685 1.5685733642578126 3.504975 Q 1.6191983642578127 3.5331 1.6814483642578126 3.5331 Q 1.7436983642578128 3.5331 1.7939483642578127 3.504975 Z M 2.4426903076171875 3.1011 Q 2.499690307617188 3.1491000000000002 2.499690307617188 3.2331 Q 2.499690307617188 3.3171 2.4426903076171875 3.364725 Q 2.3856903076171876 3.41235 2.2851903076171878 3.41235 L 2.1441903076171878 3.41235 L 2.1441903076171878 3.5781 L 2.088690307617188 3.5781 L 2.088690307617188 3.0531 L 2.2851903076171878 3.0531 Q 2.3856903076171876 3.0531 2.4426903076171875 3.1011 Z M 2.402940307617188 3.329475 Q 2.4441903076171876 3.29535 2.4441903076171876 3.2331 Q 2.4441903076171876 3.16935 2.402940307617188 3.135225 Q 2.3616903076171876 3.1011 2.2836903076171877 3.1011 L 2.1441903076171878 3.1011 L 2.1441903076171878 3.3636 L 2.2836903076171877 3.3636 Q 2.3616903076171876 3.3636 2.402940307617188 3.329475 Z M 2.9984003906250005 3.5301 L 2.9984003906250005 3.5781 L 2.6271503906250007 3.5781 L 2.6271503906250007 3.0531 L 2.9871503906250005 3.0531 L 2.9871503906250005 3.1011 L 2.6826503906250005 3.1011 L 2.6826503906250005 3.28785 L 2.9541503906250006 3.28785 L 2.9541503906250006 3.3351 L 2.6826503906250005 3.3351 L 2.6826503906250005 3.5301 L 2.9984003906250005 3.5301 Z M 3.5751093750000007 3.0531 L 3.5751093750000007 3.5781 L 3.5293593750000007 3.5781 L 3.191859375000001 3.1521 L 3.191859375000001 3.5781 L 3.136359375000001 3.5781 L 3.136359375000001 3.0531 L 3.182109375000001 3.0531 L 3.520359375000001 3.4791 L 3.520359375000001 3.0531 L 3.5751093750000007 3.0531 Z M 4.678322753906251 3.0531 L 4.50132275390625 3.5781 L 4.442822753906251 3.5781 L 4.28907275390625 3.13035 L 4.134572753906251 3.5781 L 4.07682275390625 3.5781 L 3.8998227539062507 3.0531 L 3.9568227539062506 3.0531 L 4.108322753906251 3.5046 L 4.26507275390625 3.0531 L 4.3168227539062505 3.0531 L 4.47132275390625 3.50685 L 4.625072753906251 3.0531 L 4.678322753906251 3.0531 Z M 4.870626342773439 3.5477250000000002 Q 4.807251342773438 3.5128500000000003 4.7716263427734384 3.4521 Q 4.736001342773438 3.39135 4.736001342773438 3.3156 Q 4.736001342773438 3.23985 4.7716263427734384 3.1791 Q 4.807251342773438 3.11835 4.870626342773439 3.083475 Q 4.934001342773438 3.0486 5.012001342773439 3.0486 Q 5.090001342773438 3.0486 5.152626342773439 3.0831 Q 5.215251342773438 3.1176 5.251251342773438 3.178725 Q 5.2872513427734384 3.23985 5.2872513427734384 3.3156 Q 5.2872513427734384 3.39135 5.251251342773438 3.452475 Q 5.215251342773438 3.5136000000000003 5.152626342773439 3.5481000000000003 Q 5.090001342773438 3.5826000000000002 5.012001342773439 3.5826000000000002 Q 4.934001342773438 3.5826000000000002 4.870626342773439 3.5477250000000002 Z M 5.1245013427734385 3.504975 Q 5.174751342773439 3.47685 5.203251342773438 3.426975 Q 5.231751342773438 3.3771 5.231751342773438 3.3156 Q 5.231751342773438 3.2541 5.203251342773438 3.204225 Q 5.174751342773439 3.15435 5.1245013427734385 3.126225 Q 5.074251342773438 3.0981 5.012001342773439 3.0981 Q 4.949751342773438 3.0981 4.899126342773438 3.126225 Q 4.848501342773439 3.15435 4.8196263427734385 3.204225 Q 4.790751342773438 3.2541 4.790751342773438 3.3156 Q 4.790751342773438 3.3771 4.8196263427734385 3.426975 Q 4.848501342773439 3.47685 4.899126342773438 3.504975 Q 4.949751342773438 3.5331 5.012001342773439 3.5331 Q 5.074251342773438 3.5331 5.1245013427734385 3.504975 Z M 5.7777432861328135 3.5781 L 5.657743286132813 3.40935 Q 5.6374932861328135 3.4116 5.615743286132814 3.4116 L 5.474743286132814 3.4116 L 5.474743286132814 3.5781 L 5.419243286132813 3.5781 L 5.419243286132813 3.0531 L 5.615743286132814 3.0531 Q 5.716243286132814 3.0531 5.773243286132813 3.1011 Q 5.830243286132814 3.1491000000000002 5.830243286132814 3.2331 Q 5.830243286132814 3.2946 5.799118286132813 3.3369750000000002 Q 5.767993286132814 3.37935 5.710243286132814 3.3981 L 5.838493286132813 3.5781 L 5.7777432861328135 3.5781 Z M 5.733493286132814 3.32985 Q 5.774743286132813 3.29535 5.774743286132813 3.2331 Q 5.774743286132813 3.16935 5.733493286132814 3.135225 Q 5.692243286132814 3.1011 5.6142432861328135 3.1011 L 5.474743286132814 3.1011 L 5.474743286132814 3.36435 L 5.6142432861328135 3.36435 Q 5.692243286132814 3.36435 5.733493286132814 3.32985 Z M 5.968964355468751 3.0531 L 6.024464355468751 3.0531 L 6.024464355468751 3.5301 L 6.318464355468751 3.5301 L 6.318464355468751 3.5781 L 5.968964355468751 3.5781 L 5.968964355468751 3.0531 Z M 6.418206298828126 3.0531 L 6.631956298828126 3.0531 Q 6.715206298828127 3.0531 6.778956298828127 3.086475 Q 6.842706298828126 3.11985 6.877956298828127 3.179475 Q 6.913206298828126 3.2391 6.913206298828126 3.3156 Q 6.913206298828126 3.3921 6.877956298828127 3.451725 Q 6.842706298828126 3.51135 6.778956298828127 3.544725 Q 6.715206298828127 3.5781 6.631956298828126 3.5781 L 6.418206298828126 3.5781 L 6.418206298828126 3.0531 Z M 6.628956298828126 3.5301 Q 6.697956298828126 3.5301 6.7497062988281264 3.502725 Q 6.801456298828127 3.47535 6.829956298828127 3.426975 Q 6.858456298828127 3.3786 6.858456298828127 3.3156 Q 6.858456298828127 3.2526 6.829956298828127 3.204225 Q 6.801456298828127 3.15585 6.7497062988281264 3.128475 Q 6.697956298828126 3.1011 6.628956298828126 3.1011 L 6.473706298828127 3.1011 L 6.473706298828127 3.5301 L 6.628956298828126 3.5301 Z M 7.618920043945315 3.3156 L 7.672170043945314 3.3156 L 7.672170043945314 3.51585 Q 7.635420043945315 3.5481000000000003 7.585170043945315 3.56535 Q 7.534920043945315 3.5826000000000002 7.479420043945315 3.5826000000000002 Q 7.400670043945315 3.5826000000000002 7.337670043945315 3.5481000000000003 Q 7.2746700439453145 3.5136000000000003 7.238670043945315 3.452475 Q 7.202670043945314 3.39135 7.202670043945314 3.3156 Q 7.202670043945314 3.23985 7.238670043945315 3.178725 Q 7.2746700439453145 3.1176 7.337670043945315 3.0831 Q 7.400670043945315 3.0486 7.480170043945314 3.0486 Q 7.540170043945315 3.0486 7.590420043945315 3.0677250000000003 Q 7.640670043945315 3.08685 7.6751700439453145 3.12435 L 7.640670043945315 3.1596 Q 7.578420043945314 3.0981 7.482420043945314 3.0981 Q 7.418670043945315 3.0981 7.367295043945314 3.126225 Q 7.315920043945315 3.15435 7.286670043945315 3.204225 Q 7.257420043945315 3.2541 7.257420043945315 3.3156 Q 7.257420043945315 3.3771 7.286670043945315 3.4266 Q 7.315920043945315 3.4761 7.366920043945314 3.5046 Q 7.417920043945315 3.5331 7.481670043945314 3.5331 Q 7.562670043945315 3.5331 7.618920043945315 3.4926 L 7.618920043945315 3.3156 Z M 8.165631958007815 3.43785 L 7.873131958007815 3.43785 L 7.810131958007815 3.5781 L 7.752381958007815 3.5781 L 7.992381958007815 3.0531 L 8.047131958007816 3.0531 L 8.287131958007816 3.5781 L 8.228631958007815 3.5781 L 8.165631958007815 3.43785 Z M 8.145381958007816 3.39285 L 8.019381958007815 3.11085 L 7.893381958007815 3.39285 L 8.145381958007816 3.39285 Z M 8.926866943359379 3.0531 L 8.926866943359379 3.5781 L 8.873616943359378 3.5781 L 8.873616943359378 3.1581 L 8.667366943359378 3.51135 L 8.641116943359378 3.51135 L 8.434866943359378 3.16035 L 8.434866943359378 3.5781 L 8.381616943359377 3.5781 L 8.381616943359377 3.0531 L 8.427366943359377 3.0531 L 8.655366943359377 3.4423500000000002 L 8.881116943359377 3.0531 L 8.926866943359379 3.0531 Z M 9.476583984375003 3.5301 L 9.476583984375003 3.5781 L 9.105333984375003 3.5781 L 9.105333984375003 3.0531 L 9.465333984375004 3.0531 L 9.465333984375004 3.1011 L 9.160833984375003 3.1011 L 9.160833984375003 3.28785 L 9.432333984375003 3.28785 L 9.432333984375003 3.3351 L 9.160833984375003 3.3351 L 9.160833984375003 3.5301 L 9.476583984375003 3.5301 Z M 10.147765136718753 3.43785 L 9.855265136718753 3.43785 L 9.792265136718754 3.5781 L 9.734515136718754 3.5781 L 9.974515136718754 3.0531 L 10.029265136718754 3.0531 L 10.269265136718754 3.5781 L 10.210765136718754 3.5781 L 10.147765136718753 3.43785 Z M 10.127515136718754 3.39285 L 10.001515136718753 3.11085 L 9.875515136718754 3.39285 L 10.127515136718754 3.39285 Z M 10.802500122070317 3.0531 L 10.802500122070317 3.5781 L 10.756750122070317 3.5781 L 10.419250122070316 3.1521 L 10.419250122070316 3.5781 L 10.363750122070316 3.5781 L 10.363750122070316 3.0531 L 10.409500122070316 3.0531 L 10.747750122070316 3.4791 L 10.747750122070316 3.0531 L 10.802500122070317 3.0531 Z M 10.980991333007816 3.0531 L 11.194741333007817 3.0531 Q 11.277991333007817 3.0531 11.341741333007818 3.086475 Q 11.405491333007816 3.11985 11.440741333007816 3.179475 Q 11.475991333007817 3.2391 11.475991333007817 3.3156 Q 11.475991333007817 3.3921 11.440741333007816 3.451725 Q 11.405491333007816 3.51135 11.341741333007818 3.544725 Q 11.277991333007817 3.5781 11.194741333007817 3.5781 L 10.980991333007816 3.5781 L 10.980991333007816 3.0531 Z M 11.191741333007817 3.5301 Q 11.260741333007816 3.5301 11.312491333007817 3.502725 Q 11.364241333007817 3.47535 11.392741333007816 3.426975 Q 11.421241333007817 3.3786 11.421241333007817 3.3156 Q 11.421241333007817 3.2526 11.392741333007816 3.204225 Q 11.364241333007817 3.15585 11.312491333007817 3.128475 Q 11.260741333007816 3.1011 11.191741333007817 3.1011 L 11.036491333007817 3.1011 L 11.036491333007817 3.5301 L 11.191741333007817 3.5301 Z M 11.899330078125004 3.5481000000000003 Q 11.836705078125005 3.5136000000000003 11.801080078125004 3.452475 Q 11.765455078125004 3.39135 11.765455078125004 3.3156 Q 11.765455078125004 3.23985 11.801080078125004 3.178725 Q 11.836705078125005 3.1176 11.899705078125004 3.0831 Q 11.962705078125005 3.0486 12.040705078125004 3.0486 Q 12.099205078125005 3.0486 12.148705078125005 3.0681000000000003 Q 12.198205078125005 3.0876 12.232705078125004 3.1251 L 12.197455078125005 3.16035 Q 12.135955078125004 3.0981 12.042205078125004 3.0981 Q 11.979955078125005 3.0981 11.928955078125005 3.1266 Q 11.877955078125005 3.1551 11.849080078125004 3.2046 Q 11.820205078125005 3.2541 11.820205078125005 3.3156 Q 11.820205078125005 3.3771 11.849080078125004 3.4266 Q 11.877955078125005 3.4761 11.928955078125005 3.5046 Q 11.979955078125005 3.5331 12.042205078125004 3.5331 Q 12.136705078125004 3.5331 12.197455078125005 3.4701 L 12.232705078125004 3.50535 Q 12.198205078125005 3.54285 12.148330078125005 3.562725 Q 12.098455078125005 3.5826000000000002 12.039955078125004 3.5826000000000002 Q 11.961955078125005 3.5826000000000002 11.899330078125004 3.5481000000000003 Z M 12.43556469726563 3.5477250000000002 Q 12.37218969726563 3.5128500000000003 12.33656469726563 3.4521 Q 12.30093969726563 3.39135 12.30093969726563 3.3156 Q 12.30093969726563 3.23985 12.33656469726563 3.1791 Q 12.37218969726563 3.11835 12.43556469726563 3.083475 Q 12.49893969726563 3.0486 12.57693969726563 3.0486 Q 12.65493969726563 3.0486 12.71756469726563 3.0831 Q 12.78018969726563 3.1176 12.81618969726563 3.178725 Q 12.85218969726563 3.23985 12.85218969726563 3.3156 Q 12.85218969726563 3.39135 12.81618969726563 3.452475 Q 12.78018969726563 3.5136000000000003 12.71756469726563 3.5481000000000003 Q 12.65493969726563 3.5826000000000002 12.57693969726563 3.5826000000000002 Q 12.49893969726563 3.5826000000000002 12.43556469726563 3.5477250000000002 Z M 12.68943969726563 3.504975 Q 12.73968969726563 3.47685 12.76818969726563 3.426975 Q 12.79668969726563 3.3771 12.79668969726563 3.3156 Q 12.79668969726563 3.2541 12.76818969726563 3.204225 Q 12.73968969726563 3.15435 12.68943969726563 3.126225 Q 12.63918969726563 3.0981 12.57693969726563 3.0981 Q 12.51468969726563 3.0981 12.46406469726563 3.126225 Q 12.41343969726563 3.15435 12.38456469726563 3.204225 Q 12.35568969726563 3.2541 12.35568969726563 3.3156 Q 12.35568969726563 3.3771 12.38456469726563 3.426975 Q 12.41343969726563 3.47685 12.46406469726563 3.504975 Q 12.51468969726563 3.5331 12.57693969726563 3.5331 Q 12.63918969726563 3.5331 12.68943969726563 3.504975 Z M 13.529431640625006 3.0531 L 13.529431640625006 3.5781 L 13.476181640625006 3.5781 L 13.476181640625006 3.1581 L 13.269931640625005 3.51135 L 13.243681640625006 3.51135 L 13.037431640625005 3.16035 L 13.037431640625005 3.5781 L 12.984181640625005 3.5781 L 12.984181640625005 3.0531 L 13.029931640625005 3.0531 L 13.257931640625005 3.4423500000000002 L 13.483681640625004 3.0531 L 13.529431640625006 3.0531 Z M 14.253148681640631 3.0531 L 14.253148681640631 3.5781 L 14.199898681640631 3.5781 L 14.199898681640631 3.1581 L 13.99364868164063 3.51135 L 13.967398681640631 3.51135 L 13.76114868164063 3.16035 L 13.76114868164063 3.5781 L 13.70789868164063 3.5781 L 13.70789868164063 3.0531 L 13.75364868164063 3.0531 L 13.98164868164063 3.4423500000000002 L 14.20739868164063 3.0531 L 14.253148681640631 3.0531 Z M 14.484115722656256 3.5241000000000002 Q 14.427115722656255 3.4656000000000002 14.427115722656255 3.35385 L 14.427115722656255 3.0531 L 14.482615722656256 3.0531 L 14.482615722656256 3.3516 Q 14.482615722656256 3.4431000000000003 14.523865722656256 3.4881 Q 14.565115722656255 3.5331 14.643115722656256 3.5331 Q 14.721865722656256 3.5331 14.763115722656256 3.4881 Q 14.804365722656255 3.4431000000000003 14.804365722656255 3.3516 L 14.804365722656255 3.0531 L 14.858365722656256 3.0531 L 14.858365722656256 3.35385 Q 14.858365722656256 3.4656000000000002 14.801740722656255 3.5241000000000002 Q 14.745115722656255 3.5826000000000002 14.643115722656256 3.5826000000000002 Q 14.541115722656256 3.5826000000000002 14.484115722656256 3.5241000000000002 Z M 15.471859863281257 3.0531 L 15.471859863281257 3.5781 L 15.426109863281257 3.5781 L 15.088609863281256 3.1521 L 15.088609863281256 3.5781 L 15.033109863281256 3.5781 L 15.033109863281256 3.0531 L 15.078859863281256 3.0531 L 15.417109863281256 3.4791 L 15.417109863281256 3.0531 L 15.471859863281257 3.0531 Z M 15.650351074218756 3.0531 L 15.705851074218756 3.0531 L 15.705851074218756 3.5781 L 15.650351074218756 3.5781 L 15.650351074218756 3.0531 Z M 15.98630676269532 3.1011 L 15.80180676269532 3.1011 L 15.80180676269532 3.0531 L 16.22630676269532 3.0531 L 16.22630676269532 3.1011 L 16.04180676269532 3.1011 L 16.04180676269532 3.5781 L 15.98630676269532 3.5781 L 15.98630676269532 3.1011 Z M 16.498534057617192 3.3966000000000003 L 16.498534057617192 3.5781 L 16.443784057617194 3.5781 L 16.443784057617194 3.3966000000000003 L 16.233784057617193 3.0531 L 16.29303405761719 3.0531 L 16.47303405761719 3.34785 L 16.653034057617194 3.0531 L 16.708534057617193 3.0531 L 16.498534057617192 3.3966000000000003 Z" fill="#fbe585" fill-rule="nonzero"></path></g><g clip-path="url(&quot;#SvgjsClipPath1009&quot;)"><g clip-path="url(&quot;#SvgjsClipPath1008&quot;)"><path d=" M 18.07012486352995 3.665374775326728 C 17.98365549226777 3.665338170886657 17.897714023490792 3.6519019405225155 17.81535971473114 3.6255443735808717 L 17.693580479381563 3.5866945561687373 C 17.481394590786007 3.5192689068835596 17.304988537654456 3.3697810858396595 17.20366186845833 3.1715338270686226 C 17.10080920667269 2.974127506024221 17.081171466471506 2.7437875738699384 17.14912270170668 2.531819285546681 L 17.79859639207374 0.4971534875702526 C 17.940040041582435 0.05571495423398093 18.412173891649253 -0.18787268699517984 18.85389191312453 -0.04730429010462586 L 18.975671148474113 -0.00840777820040818 C 19.199340634951483 0.06277923710776742 19.38261495910355 0.22499651125087616 19.480438607879382 0.4383651220391479 L 20.621044965963797 0.4383651220391479 C 20.718868614739627 0.22499651125087616 20.902142938891696 0.06277923710776742 21.125812425369062 -0.008407778200409222 L 21.24759166071864 -0.04730429010462586 C 21.689309682193926 -0.18787268699517984 22.16144353226074 0.05571495423398093 22.30288718176944 0.4971534875702526 L 22.951893927215675 2.5314457296100255 C 23.01984516245085 2.7434140179332847 23.000207422249666 2.9737539500875654 22.897354760464022 3.171160271131967 C 22.796040569716403 3.369417418771395 22.61962974556122 3.518909282816735 22.407436149540793 3.586321000232082 L 22.285656914191215 3.625170817644216 C 21.843938892715933 3.765739214534772 21.371805042649118 3.52215157330561 21.23036139314042 3.0807130399693383 L 21.112878051062374 2.7125736643956877 L 18.987671632939158 2.7125736643956877 L 18.87018829086111 3.0807130399693383 C 18.758804133224597 3.428692947902749 18.435496279820903 3.664956379236224 18.07012486352995 3.665374775326728 Z M 18.59879990288115 0.09945649850876329 C 18.314703927600657 0.09966566672151114 18.063236209638866 0.28326144189733915 17.976502406905755 0.553793906465588 L 17.32707541103078 2.5884597044420143 C 17.217893514811358 2.9318378967916487 17.407273480981477 3.298795525923617 17.750407676245224 3.4087418468446398 L 17.872186911594806 3.447638358748856 C 18.215564681582336 3.55665024884342 18.58241525015252 3.367304651688193 18.692469053997424 3.024259399042327 L 18.830731445051917 2.5911679849827642 C 18.843089448312178 2.55244059561276 18.879079815441052 2.526155920353892 18.919731146960004 2.5261692520047703 L 21.181378870946517 2.5261692520047703 C 21.221926830966833 2.526277644056626 21.257771926889323 2.5525388932798396 21.270098405902115 2.5911679849827687 L 21.408360796956604 3.0242593990423288 C 21.51841460080151 3.367304651688195 21.885265169371692 3.5566502488434226 22.228642939359226 3.4476383587488586 L 22.350422174708804 3.4087418468446415 C 22.693467427354673 3.298688042999734 22.882813024509897 2.9318374744295514 22.773801134415333 2.588459704442019 L 22.12460761100077 0.553793906465588 C 22.014534487486106 0.21074323083319624 21.647657296410884 0.021415554701139844 21.304278774106063 0.13046164125114176 L 21.182499538756485 0.16931145866327646 C 20.991595368817457 0.23034950208541544 20.839558397349705 0.3760968334550436 20.770514035117937 0.564253472691933 C 20.75687763301745 0.6007503208924436 20.722016402563 0.6249465833541556 20.683055251448547 0.624956312398394 L 19.41814815544214 0.624956312398394 C 19.379187004327687 0.6249465833541556 19.344325773873237 0.6007503208924436 19.330689371772753 0.564253472691932 C 19.261645009540985 0.3760968334550436 19.109608038073237 0.23034950208541544 18.918703868134205 0.16931145866327751 L 18.796924632784627 0.13046164125114176 C 18.732886164155154 0.10993317561944549 18.66604827145768 0.0994735101112861 18.598799902881147 0.09945649850876434 Z" fill="#1192dc" transform="matrix(1,0,0,1,0,0)" fill-rule="nonzero"></path></g><g clip-path="url(&quot;#SvgjsClipPath1008&quot;)"><path d=" M 18.506158030590672 1.6923457068983985 C 18.454580718834826 1.6923457068983985 18.412769046426885 1.6505340344904604 18.412769046426885 1.5989567227346113 L 18.412769046426885 0.9696083584548507 C 18.412769046426885 0.9180310466990018 18.454580718834826 0.8762193742910627 18.506158030590672 0.8762193742910627 C 18.557735342346522 0.8762193742910627 18.599547014754457 0.9180310466990018 18.599547014754457 0.9696083584548507 L 18.599547014754457 1.5989567227346113 C 18.599547014754457 1.6505340344904604 18.557735342346522 1.6923457068983985 18.506158030590672 1.6923457068983985 Z" fill="#1192dc" transform="matrix(1,0,0,1,0,0)" fill-rule="nonzero"></path></g><g clip-path="url(&quot;#SvgjsClipPath1008&quot;)"><path d=" M 18.820832212730558 1.3777182192506 L 18.191437153958713 1.3777182192506 C 18.139859842202863 1.3777182192506 18.09804816979492 1.335906546842662 18.09804816979492 1.284329235086813 C 18.09804816979492 1.232751923330964 18.139859842202863 1.190940250923026 18.191437153958713 1.190940250923026 L 18.820832212730558 1.190940250923026 C 18.8724095244864 1.190940250923026 18.91422119689434 1.232751923330964 18.91422119689434 1.284329235086813 C 18.91422119689434 1.335906546842662 18.8724095244864 1.3777182192506 18.820832212730558 1.3777182192506 Z" fill="#1192dc" transform="matrix(1,0,0,1,0,0)" fill-rule="nonzero"></path></g><g clip-path="url(&quot;#SvgjsClipPath1008&quot;)"><path d=" M 19.728339666342155 2.361944723352753 L 19.35777217718025 2.361944723352753 C 19.306194865424402 2.361944723352753 19.264383193016464 2.320133050944814 19.264383193016464 2.2685557391889652 C 19.264383193016464 2.2169784274331166 19.306194865424402 2.1751667550251774 19.35777217718025 2.1751667550251774 L 19.728339666342155 2.1751667550251774 C 19.779916978098004 2.1751667550251774 19.821728650505943 2.2169784274331166 19.821728650505943 2.2685557391889652 C 19.821728650505943 2.320133050944814 19.779916978098004 2.361944723352753 19.728339666342155 2.361944723352753 Z" fill="#1192dc" transform="matrix(1,0,0,1,0,0)" fill-rule="nonzero"></path></g><g clip-path="url(&quot;#SvgjsClipPath1008&quot;)"><path d=" M 20.743244451742108 2.361944723352753 L 20.3726769625802 2.361944723352753 C 20.321099650824355 2.361944723352753 20.279287978416416 2.320133050944814 20.279287978416416 2.2685557391889652 C 20.279287978416416 2.2169784274331166 20.321099650824355 2.1751667550251774 20.3726769625802 2.1751667550251774 L 20.743244451742108 2.1751667550251774 C 20.794821763497957 2.1751667550251774 20.836633435905895 2.2169784274331166 20.836633435905895 2.2685557391889652 C 20.836633435905895 2.320133050944814 20.794821763497957 2.361944723352753 20.743244451742108 2.361944723352753 Z" fill="#1192dc" transform="matrix(1,0,0,1,0,0)" fill-rule="nonzero"></path></g><g clip-path="url(&quot;#SvgjsClipPath1008&quot;)"><path d=" M 21.22340391382022 1.3640834275626876 C 21.146037946186446 1.3640834275626876 21.083320437574542 1.3013659189507791 21.083320437574542 1.2239999513170068 C 21.083320437574542 1.1466339836832333 21.146037946186446 1.0839164750713257 21.22340391382022 1.0839164750713257 C 21.300769881453995 1.0839164750713257 21.363487390065902 1.1466339836832333 21.363487390065902 1.2239999513170068 C 21.363487390065902 1.3013659189507791 21.300769881453995 1.3640834275626876 21.22340391382022 1.3640834275626876 Z M 21.22340391382022 1.1773054592351127 C 21.197615257942296 1.1773054592351127 21.176709421738327 1.1982112954390822 21.176709421738327 1.2239999513170068 C 21.176709421738327 1.2497886071949311 21.197615257942296 1.2706944433988996 21.22340391382022 1.2706944433988996 C 21.249192569698145 1.2706944433988996 21.270098405902115 1.2497886071949311 21.270098405902115 1.2239999513170068 C 21.270098405902115 1.1982112954390822 21.249192569698145 1.1773054592351127 21.22340391382022 1.1773054592351127 Z" fill="#1192dc" transform="matrix(1,0,0,1,0,0)" fill-rule="nonzero"></path></g><g clip-path="url(&quot;#SvgjsClipPath1008&quot;)"><path d=" M 21.830432310884838 1.3640834275626876 C 21.753066343251064 1.3640834275626876 21.690348834639156 1.3013659189507791 21.690348834639156 1.2239999513170068 C 21.690348834639156 1.1466339836832333 21.753066343251064 1.0839164750713257 21.830432310884838 1.0839164750713257 C 21.907798278518612 1.0839164750713257 21.970515787130516 1.1466339836832333 21.970515787130516 1.2239999513170068 C 21.970515787130516 1.3013659189507791 21.907798278518612 1.3640834275626876 21.830432310884838 1.3640834275626876 Z M 21.830432310884838 1.1773054592351127 C 21.804643655006913 1.1773054592351127 21.783737818802944 1.1982112954390822 21.783737818802944 1.2239999513170068 C 21.783737818802944 1.2497886071949311 21.804643655006913 1.2706944433988996 21.830432310884838 1.2706944433988996 C 21.856220966762763 1.2706944433988996 21.877126802966732 1.2497886071949311 21.877126802966732 1.2239999513170068 C 21.877126802966732 1.1982112954390822 21.856220966762763 1.1773054592351127 21.830432310884838 1.1773054592351127 Z" fill="#1192dc" transform="matrix(1,0,0,1,0,0)" fill-rule="nonzero"></path></g><g clip-path="url(&quot;#SvgjsClipPath1008&quot;)"><path d=" M 21.52691811235253 1.0605692290303788 C 21.449552144718755 1.0605692290303788 21.386834636106848 0.9978517204184714 21.386834636106848 0.9204857527846988 C 21.386834636106848 0.8431197851509253 21.449552144718755 0.7804022765390178 21.52691811235253 0.7804022765390178 C 21.604284079986304 0.7804022765390178 21.66700158859821 0.8431197851509253 21.66700158859821 0.9204857527846988 C 21.66700158859821 0.9978517204184714 21.604284079986304 1.0605692290303788 21.52691811235253 1.0605692290303788 Z M 21.52691811235253 0.8737912607028048 C 21.501129456474604 0.8737912607028048 21.480223620270635 0.8946970969067743 21.480223620270635 0.9204857527846988 C 21.480223620270635 0.9462744086626234 21.501129456474604 0.9671802448665918 21.52691811235253 0.9671802448665918 C 21.552706768230454 0.9671802448665918 21.573612604434423 0.9462744086626234 21.573612604434423 0.9204857527846988 C 21.573612604434423 0.8946970969067743 21.552706768230454 0.8737912607028048 21.52691811235253 0.8737912607028048 Z" fill="#1192dc" transform="matrix(1,0,0,1,0,0)" fill-rule="nonzero"></path></g><g clip-path="url(&quot;#SvgjsClipPath1008&quot;)"><path d=" M 21.52691811235253 1.6675976260949956 C 21.449552144718755 1.6675976260949956 21.386834636106848 1.6048801174830882 21.386834636106848 1.5275141498493146 C 21.386834636106848 1.450148182215541 21.449552144718755 1.3874306736036337 21.52691811235253 1.3874306736036337 C 21.604284079986304 1.3874306736036337 21.66700158859821 1.450148182215541 21.66700158859821 1.5275141498493146 C 21.66700158859821 1.6048801174830882 21.604284079986304 1.6675976260949956 21.52691811235253 1.6675976260949956 Z M 21.52691811235253 1.4808196577674206 C 21.501129456474604 1.4808196577674206 21.480223620270635 1.5017254939713902 21.480223620270635 1.5275141498493146 C 21.480223620270635 1.553302805727239 21.501129456474604 1.5742086419312076 21.52691811235253 1.5742086419312076 C 21.552706768230454 1.5742086419312076 21.573612604434423 1.553302805727239 21.573612604434423 1.5275141498493146 C 21.573612604434423 1.5017254939713902 21.552706768230454 1.4808196577674206 21.52691811235253 1.4808196577674206 Z" fill="#1192dc" transform="matrix(1,0,0,1,0,0)" fill-rule="nonzero"></path></g></g></g><defs><clipPath id="SvgjsClipPath1009"><path d=" M 17.109245605468747 -0.08732146981880962 h 5.882478723492783 v 3.7527429396376193 h -5.882478723492783 Z"></path></clipPath><clipPath id="SvgjsClipPath1008"><path d=" M 17.109245605468747 -0.08732146981880962 L 22.99172432896153 -0.08732146981880962 L 22.99172432896153 3.66542146981881 L 17.109245605468747 3.66542146981881 Z"></path></clipPath></defs></svg>